<svg width="203" height="43" viewBox="0 0 203 43" fill="none" xmlns="http://www.w3.org/2000/svg">
<path d="M56.4603 20.7003V35.9366H50.851V33.6939C50.1315 34.591 49.3268 35.2592 48.4368 35.6984C47.5564 36.1282 46.5576 36.3431 45.4405 36.3431C44.5032 36.3431 43.6654 36.1889 42.9269 35.8806C42.1885 35.5722 41.5636 35.1143 41.0524 34.5069C40.598 33.9649 40.2761 33.3061 40.0868 32.5305C39.8974 31.7456 39.8027 30.4327 39.8027 28.5918V20.7003H45.9375V28.5638C45.9375 29.7225 46.0937 30.5261 46.4061 30.9747C46.7185 31.4139 47.2582 31.6335 48.025 31.6335C48.7919 31.6335 49.3646 31.3765 49.7433 30.8625C50.1315 30.3486 50.3256 29.573 50.3256 28.5357V20.7003H56.4603Z" fill="white"/>
<path d="M59.9395 19.1444V14.7852H66.1311V19.1444H59.9395ZM59.9395 35.9366V20.7003H66.1311V35.9366H59.9395Z" fill="white"/>
<path d="M69.7665 35.9366V15.2898H75.9581V35.9366H69.7665Z" fill="white"/>
<path d="M95.825 35.9366H90.3861V34.0724C89.7234 34.8854 88.9708 35.4928 88.1282 35.8946C87.2951 36.2871 86.3578 36.4833 85.3164 36.4833C83.3378 36.4833 81.7378 35.7451 80.5165 34.2686C79.2953 32.7828 78.6846 30.8205 78.6846 28.3815C78.6846 25.9613 79.2953 23.9989 80.5165 22.4944C81.7473 20.99 83.3283 20.2377 85.2596 20.2377C86.1874 20.2377 87.0253 20.4106 87.7732 20.7564C88.5305 21.1021 89.2169 21.6254 89.8323 22.3262V15.2898H95.825V35.9366ZM87.3613 31.9979C88.1471 31.9979 88.7625 31.6895 89.2075 31.0728C89.6619 30.4467 89.8891 29.5823 89.8891 28.4797C89.8891 27.2835 89.6808 26.3958 89.2643 25.8164C88.8477 25.2371 88.2134 24.9474 87.3613 24.9474C86.5093 24.9474 85.8797 25.2371 85.4726 25.8164C85.0655 26.3865 84.862 27.2742 84.862 28.4797C84.862 29.5917 85.0797 30.456 85.5152 31.0728C85.9602 31.6895 86.5756 31.9979 87.3613 31.9979Z" fill="white"/>
<path d="M99.2758 19.1444V14.7852H105.467V19.1444H99.2758ZM99.2758 35.9366V20.7003H105.467V35.9366H99.2758Z" fill="white"/>
<path d="M108.961 35.9366V20.7003H114.542V22.929C115.261 22.0412 116.061 21.3824 116.942 20.9526C117.832 20.5134 118.835 20.2938 119.952 20.2938C120.89 20.2938 121.727 20.448 122.466 20.7564C123.204 21.0647 123.829 21.5226 124.34 22.13C124.804 22.6813 125.131 23.3541 125.32 24.1484C125.519 24.9334 125.618 26.2229 125.618 28.0171V35.9366H119.484V28.0451C119.484 26.8864 119.327 26.0921 119.015 25.6623C118.703 25.2231 118.163 25.0035 117.396 25.0035C116.62 25.0035 116.042 25.2558 115.664 25.7604C115.285 26.265 115.096 27.0359 115.096 28.0732V35.9366H108.961Z" fill="white"/>
<path d="M134.224 28.2133C134.224 29.4375 134.428 30.3486 134.835 30.9466C135.242 31.5353 135.862 31.8297 136.695 31.8297C137.576 31.8297 138.224 31.54 138.641 30.9606C139.067 30.3813 139.28 29.4749 139.28 28.2414C139.28 27.1387 139.052 26.2837 138.598 25.6763C138.153 25.0689 137.519 24.7652 136.695 24.7652C135.862 24.7652 135.242 25.0549 134.835 25.6342C134.428 26.2042 134.224 27.064 134.224 28.2133ZM129.126 37.5766H135.204C135.28 37.9411 135.455 38.2027 135.729 38.3616C136.013 38.5204 136.439 38.5999 137.007 38.5999C137.907 38.5999 138.513 38.4036 138.825 38.0111C139.147 37.6187 139.308 36.7543 139.308 35.418V34.591C138.787 35.0863 138.167 35.4601 137.448 35.7124C136.738 35.9553 135.923 36.0768 135.005 36.0768C132.922 36.0768 131.251 35.376 129.992 33.9743C128.743 32.5632 128.118 30.6897 128.118 28.3535C128.118 25.8959 128.714 23.9382 129.907 22.4804C131.109 21.0227 132.709 20.2938 134.707 20.2938C135.824 20.2938 136.794 20.49 137.618 20.8825C138.451 21.2656 139.171 21.8637 139.777 22.6767V20.7003H145.216V34.7592C145.216 37.4131 144.558 39.296 143.242 40.408C141.926 41.52 139.706 42.076 136.581 42.076C134.413 42.076 132.681 41.6836 131.384 40.8986C130.087 40.1137 129.334 39.0063 129.126 37.5766Z" fill="white"/>
<path d="M153.239 35.9366V20.7283H147.218V15.2898H165.849V20.7283H159.956V35.9366H153.239Z" fill="white"/>
<path d="M175.989 29.1384C175.402 29.3627 174.621 29.601 173.646 29.8533C172.112 30.2551 171.345 30.7924 171.345 31.4653C171.345 31.8951 171.497 32.2315 171.8 32.4745C172.102 32.7174 172.533 32.8389 173.092 32.8389C174.114 32.8389 174.857 32.6053 175.321 32.1381C175.795 31.6708 176.031 30.9279 176.031 29.9094C176.031 29.6945 176.027 29.5356 176.017 29.4328C176.017 29.3207 176.008 29.2226 175.989 29.1384ZM176.557 35.9366L176.173 34.4789C175.388 35.161 174.54 35.6656 173.631 35.9927C172.723 36.3198 171.7 36.4833 170.564 36.4833C168.822 36.4833 167.473 36.0628 166.517 35.2218C165.57 34.3714 165.097 33.1753 165.097 31.6335C165.097 30.129 165.565 29.017 166.503 28.2974C167.44 27.5779 169.21 27.0546 171.814 26.7275C172.145 26.6808 172.59 26.6294 173.149 26.5734C175.089 26.3678 176.06 25.8725 176.06 25.0876C176.06 24.6484 175.88 24.3307 175.52 24.1344C175.17 23.9288 174.611 23.826 173.844 23.826C173.21 23.826 172.723 23.9522 172.382 24.2045C172.041 24.4475 171.842 24.8259 171.785 25.3399H165.793C165.821 23.6298 166.531 22.3403 167.923 21.4712C169.314 20.5928 171.359 20.1536 174.057 20.1536C175.326 20.1536 176.495 20.2704 177.565 20.504C178.644 20.7377 179.482 21.0507 180.079 21.4432C180.808 21.9291 181.319 22.4804 181.612 23.0972C181.906 23.7046 182.053 24.5783 182.053 25.7183V34.2126C182.053 34.4929 182.109 34.7452 182.223 34.9695C182.337 35.1844 182.502 35.3619 182.72 35.5021V35.9366H176.557Z" fill="white"/>
<path d="M196.665 28.3535C196.665 27.1574 196.462 26.2697 196.055 25.6903C195.647 25.1109 195.027 24.8212 194.194 24.8212C193.295 24.8212 192.637 25.1063 192.22 25.6763C191.813 26.237 191.61 27.1294 191.61 28.3535C191.61 29.5029 191.818 30.3673 192.235 30.9466C192.661 31.5166 193.295 31.8017 194.137 31.8017C194.971 31.8017 195.6 31.512 196.026 30.9326C196.452 30.3532 196.665 29.4935 196.665 28.3535ZM185.645 42.048V20.7003H191.084V22.6486C191.69 21.8357 192.395 21.2423 193.2 20.8685C194.005 20.4854 194.966 20.2938 196.083 20.2938C198.081 20.2938 199.699 21.0367 200.94 22.5225C202.18 23.9989 202.8 25.9426 202.8 28.3535C202.8 30.8205 202.18 32.7875 200.94 34.2546C199.709 35.7217 198.052 36.4553 195.969 36.4553C195.013 36.4553 194.18 36.2964 193.47 35.9787C192.76 35.661 192.14 35.1704 191.61 34.5069V42.048H185.645Z" fill="white"/>
<rect width="9.68564" height="21.9328" fill="white"/>
<path fill-rule="evenodd" clip-rule="evenodd" d="M11.7913 21.9328H24.4073C30.4639 21.9328 35.3737 17.023 35.3737 10.9664C35.3737 4.90982 30.4639 0 24.4073 0H11.7913V21.9328Z" fill="#E13535"/>
<path fill-rule="evenodd" clip-rule="evenodd" d="M18.8938 21.9328H24.4072C30.4638 21.9328 35.3736 17.023 35.3736 10.9664C35.3736 4.90982 30.4638 0 24.4072 0H18.8938C22.4768 2.33213 24.8458 6.37261 24.8458 10.9664C24.8458 15.5602 22.4768 19.6007 18.8938 21.9328Z" fill="url(#paint0_linear_11_47174)"/>
<path fill-rule="evenodd" clip-rule="evenodd" d="M9.68564 24.042H0V35.852H9.68564V24.042Z" fill="white"/>
<path fill-rule="evenodd" clip-rule="evenodd" d="M35.3417 35.852C35.3629 35.5736 35.3737 35.2922 35.3737 35.0084C35.3737 28.9518 30.4639 24.042 24.4073 24.042H11.7913V35.852H35.3417Z" fill="#E13535"/>
<path fill-rule="evenodd" clip-rule="evenodd" d="M35.34 35.8518C35.3623 35.5664 35.3736 35.278 35.3736 34.9869C35.3736 28.9303 30.4638 24.0205 24.4072 24.0205H18.8938C22.4768 26.3526 24.8458 30.3931 24.8458 34.9869C24.8458 35.2775 24.8363 35.5659 24.8176 35.8518H35.34Z" fill="url(#paint1_linear_11_47174)"/>
<defs>
<linearGradient id="paint0_linear_11_47174" x1="26.0389" y1="19.3525" x2="19.5682" y2="2.28051" gradientUnits="userSpaceOnUse">
<stop stop-color="#E13535"/>
<stop offset="1" stop-color="#FF6464"/>
</linearGradient>
<linearGradient id="paint1_linear_11_47174" x1="26.0389" y1="43.373" x2="19.5682" y2="26.301" gradientUnits="userSpaceOnUse">
<stop stop-color="#E13535"/>
<stop offset="1" stop-color="#FF6464"/>
</linearGradient>
</defs>
</svg>
