<svg width="24" height="24" viewBox="0 0 24 24" fill="none" xmlns="http://www.w3.org/2000/svg">
<path d="M11.7559 6.7556C12.0814 6.43016 12.0814 5.90252 11.7559 5.57709C11.4305 5.25165 10.9028 5.25165 10.5774 5.57709L4.74408 11.4104C4.41864 11.7359 4.41864 12.2635 4.74408 12.5889L10.5774 18.4223C10.9028 18.7477 11.4305 18.7477 11.7559 18.4223C12.0814 18.0968 12.0814 17.5692 11.7559 17.2438L6.51184 11.9997L11.7559 6.7556Z" fill="#7B7979"/>
<path d="M17.5893 6.7556C17.9147 6.43016 17.9147 5.90252 17.5893 5.57709C17.2638 5.25165 16.7362 5.25165 16.4107 5.57709L10.5774 11.4104C10.252 11.7359 10.252 12.2635 10.5774 12.5889L16.4107 18.4223C16.7362 18.7477 17.2638 18.7477 17.5893 18.4223C17.9147 18.0968 17.9147 17.5692 17.5893 17.2438L12.3452 11.9997L17.5893 6.7556Z" fill="#7B7979"/>
</svg>
