<svg width="200" height="113" viewBox="0 0 200 113" fill="none" xmlns="http://www.w3.org/2000/svg">
<circle cx="2" cy="2" r="2" transform="matrix(1 0 0 -1 96 93)" fill="#FA7D71"/>
<circle cx="2" cy="2" r="2" transform="matrix(1 0 0 -1 15 15)" fill="#86CC5F"/>
<rect x="22" y="35" width="60" height="56" rx="12" fill="#86CC5F"/>
<path d="M49.5 57.9999C49.5 57.5397 49.8731 57.1666 50.3334 57.1666L55.3334 57.1666C55.7936 57.1666 56.1667 57.5397 56.1667 57.9999C56.1667 58.4602 55.7936 58.8333 55.3334 58.8333L50.3334 58.8333C49.8731 58.8333 49.5 58.4602 49.5 57.9999Z" fill="#55AB31"/>
<path d="M50.3334 60.4999C49.8731 60.4999 49.5 60.873 49.5 61.3333C49.5 61.7935 49.8731 62.1666 50.3334 62.1666L55.3334 62.1666C55.7936 62.1666 56.1667 61.7935 56.1667 61.3333C56.1667 60.873 55.7936 60.4999 55.3334 60.4999L50.3334 60.4999Z" fill="#55AB31"/>
<path fill-rule="evenodd" clip-rule="evenodd" d="M46.1667 61.3333H45.3334C43.9527 61.3333 42.8334 60.214 42.8334 58.8333V56.3333C42.8334 54.9525 43.9527 53.8333 45.3334 53.8333H57C58.3807 53.8333 59.5 54.9525 59.5 56.3333V66.3333H60.3334C60.7936 66.3333 61.1667 66.7063 61.1667 67.1666V69.6666C61.1667 71.0473 60.0474 72.1666 58.6667 72.1666H48.6667C47.286 72.1666 46.1667 71.0473 46.1667 69.6666V61.3333ZM44.5 56.3333C44.5 55.873 44.8731 55.4999 45.3334 55.4999C45.7936 55.4999 46.1667 55.873 46.1667 56.3333V59.6666H45.3334C44.8731 59.6666 44.5 59.2935 44.5 58.8333V56.3333ZM51.0245 70.4999H58.6667C59.1269 70.4999 59.5 70.1268 59.5 69.6666V67.9999H51.1667V69.6666C51.1667 69.9588 51.1166 70.2393 51.0245 70.4999ZM48.6667 70.4999C49.1269 70.4999 49.5 70.1268 49.5 69.6666V67.1666C49.5 66.7063 49.8731 66.3333 50.3334 66.3333H57.8334V56.3333C57.8334 55.873 57.4603 55.4999 57 55.4999H47.6911C47.7832 55.7606 47.8334 56.0411 47.8334 56.3333V69.6666C47.8334 70.1268 48.2065 70.4999 48.6667 70.4999Z" fill="#55AB31"/>
<rect x="117" y="35" width="60" height="56" rx="12" fill="#F5BE6B"/>
<path d="M144.5 57.9999C144.5 57.5397 144.873 57.1666 145.333 57.1666L150.333 57.1666C150.794 57.1666 151.167 57.5397 151.167 57.9999C151.167 58.4602 150.794 58.8333 150.333 58.8333L145.333 58.8333C144.873 58.8333 144.5 58.4602 144.5 57.9999Z" fill="#EF9F3C"/>
<path d="M145.333 60.4999C144.873 60.4999 144.5 60.873 144.5 61.3333C144.5 61.7935 144.873 62.1666 145.333 62.1666L150.333 62.1666C150.794 62.1666 151.167 61.7935 151.167 61.3333C151.167 60.873 150.794 60.4999 150.333 60.4999L145.333 60.4999Z" fill="#EF9F3C"/>
<path fill-rule="evenodd" clip-rule="evenodd" d="M141.167 61.3333H140.333C138.953 61.3333 137.833 60.214 137.833 58.8333V56.3333C137.833 54.9525 138.953 53.8333 140.333 53.8333H152C153.381 53.8333 154.5 54.9525 154.5 56.3333V66.3333H155.333C155.794 66.3333 156.167 66.7063 156.167 67.1666V69.6666C156.167 71.0473 155.047 72.1666 153.667 72.1666H143.667C142.286 72.1666 141.167 71.0473 141.167 69.6666V61.3333ZM139.5 56.3333C139.5 55.873 139.873 55.4999 140.333 55.4999C140.794 55.4999 141.167 55.873 141.167 56.3333V59.6666H140.333C139.873 59.6666 139.5 59.2935 139.5 58.8333V56.3333ZM146.024 70.4999H153.667C154.127 70.4999 154.5 70.1268 154.5 69.6666V67.9999H146.167V69.6666C146.167 69.9588 146.117 70.2393 146.024 70.4999ZM143.667 70.4999C144.127 70.4999 144.5 70.1268 144.5 69.6666V67.1666C144.5 66.7063 144.873 66.3333 145.333 66.3333H152.833V56.3333C152.833 55.873 152.46 55.4999 152 55.4999H142.691C142.783 55.7606 142.833 56.0411 142.833 56.3333V69.6666C142.833 70.1268 143.206 70.4999 143.667 70.4999Z" fill="#EF9F3C"/>
<path fill-rule="evenodd" clip-rule="evenodd" d="M74.5 33C79.7467 33 84 28.7467 84 23.5C84 21.8719 83.5904 20.3394 82.8687 19H117C123.627 19 129 24.3726 129 31V63C129 69.6274 123.627 75 117 75H81C74.3726 75 69 69.6274 69 63V31.2469C70.5521 32.3508 72.4503 33 74.5 33Z" fill="#FA7D71"/>
<circle cx="74.5" cy="23.5" r="5.5" fill="#FA7D71"/>
<path d="M104.556 42.5556H102.889V45.3333H97.8889V46.4444H100.111V50.3333H101.222V46.4444H107.333V55.3333H101.222V53.6667H100.111V55.3333H90.6667V46.4444H94.5556V45.3333H90.6667V38.6667H102.889V40.3333H104.556V37H89V57H109V44.7778H104.556V42.5556Z" fill="#E13535"/>
<path fill-rule="evenodd" clip-rule="evenodd" d="M188.667 18.3334H184.667V14.3334C184.667 13.9647 184.368 13.6667 184 13.6667C183.632 13.6667 183.333 13.9647 183.333 14.3334V18.3334H179.333C178.965 18.3334 178.667 18.6314 178.667 19.0001C178.667 19.3687 178.965 19.6667 179.333 19.6667H183.333V23.6667C183.333 24.0354 183.632 24.3334 184 24.3334C184.368 24.3334 184.667 24.0354 184.667 23.6667V19.6667H188.667C189.035 19.6667 189.333 19.3687 189.333 19.0001C189.333 18.6314 189.035 18.3334 188.667 18.3334Z" fill="#55AB31"/>
<path fill-rule="evenodd" clip-rule="evenodd" d="M19.6666 96.3334H15.6666V92.3334C15.6666 91.9647 15.368 91.6667 15 91.6667C14.632 91.6667 14.3333 91.9647 14.3333 92.3334V96.3334H10.3333C9.96529 96.3334 9.66663 96.6314 9.66663 97.0001C9.66663 97.3687 9.96529 97.6667 10.3333 97.6667H14.3333V101.667C14.3333 102.035 14.632 102.333 15 102.333C15.368 102.333 15.6666 102.035 15.6666 101.667V97.6667H19.6666C20.0346 97.6667 20.3333 97.3687 20.3333 97.0001C20.3333 96.6314 20.0346 96.3334 19.6666 96.3334Z" fill="#EF9F3C"/>
<path fill-rule="evenodd" clip-rule="evenodd" d="M49.3334 19.6666H47.3334V17.6666C47.3334 17.4823 47.184 17.3333 47 17.3333C46.816 17.3333 46.6667 17.4823 46.6667 17.6666V19.6666H44.6667C44.4827 19.6666 44.3334 19.8156 44.3334 19.9999C44.3334 20.1843 44.4827 20.3333 44.6667 20.3333H46.6667V22.3333C46.6667 22.5176 46.816 22.6666 47 22.6666C47.184 22.6666 47.3334 22.5176 47.3334 22.3333V20.3333H49.3334C49.5174 20.3333 49.6667 20.1843 49.6667 19.9999C49.6667 19.8156 49.5174 19.6666 49.3334 19.6666Z" fill="#EE7B71"/>
</svg>
